<svg width="20" height="20" viewBox="0 0 20 20" fill="none" xmlns="http://www.w3.org/2000/svg">
<path fill-rule="evenodd" clip-rule="evenodd" d="M8.78541 2.55679C3.93341 2.55679 0 6.41388 0 11.172C0 15.93 3.93341 19.7872 8.78541 19.7872C13.6375 19.7872 17.5708 15.93 17.5708 11.172C17.5708 6.41388 13.6375 2.55679 8.78541 2.55679ZM8.78541 4.62439C12.4671 4.62439 15.4624 7.56163 15.4624 11.172C15.4624 14.7822 12.4671 17.7195 8.78541 17.7195C5.10385 17.7195 2.10844 14.7822 2.10844 11.172C2.10844 7.56163 5.10385 4.62439 8.78541 4.62439Z" fill="white"/>
<path fill-rule="evenodd" clip-rule="evenodd" d="M11.2146 0.212799C6.36258 0.212799 2.42917 4.06988 2.42917 8.82801C2.42917 13.586 6.36258 17.4432 11.2146 17.4432C16.0667 17.4432 20 13.586 20 8.82801C20 4.06988 16.0667 0.212799 11.2146 0.212799ZM11.7504 2.28039C15.4321 2.28039 18.4274 5.21764 18.4274 8.82801C18.4274 12.4382 15.4321 15.3755 11.7504 15.3755C8.06887 15.3755 5.07346 12.4382 5.07346 8.82801C5.07346 5.21764 8.06887 2.28039 11.7504 2.28039Z" fill="white"/>
</svg>
