<svg width="340" height="230" viewBox="0 0 340 230" fill="none" xmlns="http://www.w3.org/2000/svg">
<mask id="mask0" mask-type="alpha" maskUnits="userSpaceOnUse" x="16" y="10" width="310" height="210">
<rect x="16" y="10" width="310" height="210" rx="8" fill="url(#paint0_linear)" fill-opacity="0.6"/>
</mask>
<g mask="url(#mask0)">
<rect x="16" y="10" width="310" height="210" fill="url(#paint1_linear)" fill-opacity="0.6"/>
</g>
<mask id="mask1" mask-type="alpha" maskUnits="userSpaceOnUse" x="9" y="5" width="325" height="210">
<rect x="9" y="5" width="325" height="210" rx="8" fill="url(#paint2_linear)" fill-opacity="0.7"/>
</mask>
<g mask="url(#mask1)">
<rect x="9" y="5" width="325" height="210" fill="url(#paint3_linear)" fill-opacity="0.7"/>
</g>
<mask id="mask2" mask-type="alpha" maskUnits="userSpaceOnUse" x="0" y="0" width="340" height="210">
<rect width="340" height="210" rx="8" fill="url(#paint4_linear)"/>
</mask>
<g mask="url(#mask2)">
<rect width="340" height="210" fill="url(#paint5_linear)"/>
</g>
<path opacity="0.05" d="M49.4653 190.475L60.0854 151.656H74.4409L56.4966 204.977H42.4341L24.6362 151.656H38.8818L49.4653 190.475ZM92.0557 204.977H79.2383V151.656H92.0557V204.977ZM128.494 190.804C128.494 188.924 127.822 187.459 126.479 186.41C125.161 185.36 122.83 184.273 119.485 183.15C116.14 182.027 113.406 180.941 111.282 179.891C104.373 176.498 100.918 171.834 100.918 165.902C100.918 162.948 101.772 160.348 103.481 158.102C105.215 155.831 107.656 154.073 110.806 152.828C113.955 151.559 117.495 150.924 121.426 150.924C125.259 150.924 128.689 151.607 131.716 152.975C134.768 154.342 137.136 156.295 138.821 158.834C140.505 161.349 141.348 164.229 141.348 167.477H128.53C128.53 165.304 127.859 163.619 126.516 162.423C125.198 161.227 123.403 160.628 121.133 160.628C118.838 160.628 117.019 161.141 115.676 162.167C114.358 163.167 113.699 164.449 113.699 166.012C113.699 167.379 114.431 168.624 115.896 169.747C117.361 170.846 119.937 171.993 123.623 173.189C127.31 174.361 130.337 175.631 132.705 176.998C138.467 180.318 141.348 184.896 141.348 190.731C141.348 195.394 139.59 199.056 136.074 201.717C132.559 204.378 127.737 205.709 121.609 205.709C117.288 205.709 113.369 204.94 109.854 203.402C106.362 201.839 103.726 199.715 101.943 197.03C100.186 194.32 99.3066 191.207 99.3066 187.691H112.197C112.197 190.548 112.93 192.66 114.395 194.027C115.884 195.37 118.289 196.041 121.609 196.041C123.733 196.041 125.405 195.589 126.626 194.686C127.871 193.758 128.494 192.464 128.494 190.804ZM178.225 195.016H160.61L157.534 204.977H143.801L163.357 151.656H175.442L195.144 204.977H181.338L178.225 195.016ZM163.687 185.091H175.149L169.399 166.598L163.687 185.091Z" fill="white"/>
<path d="M43.9121 105.044C43.9121 107.689 43.4604 109.654 42.5571 110.94C41.6538 112.226 40.2419 112.869 38.3213 112.869C36.4251 112.869 35.0213 112.242 34.1099 110.989C33.1984 109.727 32.7264 107.847 32.6938 105.349V102.334C32.6938 99.7216 33.1455 97.7807 34.0488 96.5111C34.9521 95.2416 36.3682 94.6068 38.2969 94.6068C40.2093 94.6068 41.6172 95.2213 42.5205 96.4501C43.4238 97.6708 43.8877 99.5588 43.9121 102.114V105.044ZM41.6538 101.955C41.6538 100.043 41.3853 98.6514 40.8481 97.7807C40.311 96.9018 39.4606 96.4623 38.2969 96.4623C37.1413 96.4623 36.299 96.8977 35.77 97.7685C35.241 98.6392 34.9684 99.9779 34.9521 101.785V105.398C34.9521 107.318 35.2288 108.739 35.7822 109.658C36.3438 110.57 37.1901 111.025 38.3213 111.025C39.4362 111.025 40.2622 110.594 40.7993 109.731C41.3446 108.869 41.6294 107.51 41.6538 105.654V101.955ZM54.2271 112.624H51.9565V97.5732L47.4033 99.2455V97.1947L53.873 94.7655H54.2271V112.624ZM72.4888 112.624H60.8433V111.001L66.9956 104.165C67.9071 103.131 68.5337 102.293 68.8755 101.65C69.2254 100.999 69.4004 100.328 69.4004 99.6361C69.4004 98.7084 69.1196 97.9475 68.5581 97.3534C67.9966 96.7593 67.2479 96.4623 66.312 96.4623C65.189 96.4623 64.3141 96.7838 63.6875 97.4267C63.069 98.0614 62.7598 98.9485 62.7598 100.088H60.5015C60.5015 98.4521 61.0264 97.1296 62.0762 96.1205C63.1341 95.1114 64.5461 94.6068 66.312 94.6068C67.964 94.6068 69.2702 95.0422 70.2305 95.913C71.1908 96.7756 71.6709 97.9272 71.6709 99.3676C71.6709 101.117 70.556 103.201 68.3262 105.618L63.5654 110.781H72.4888V112.624ZM78.165 102.639H79.8618C80.9279 102.623 81.7661 102.342 82.3765 101.797C82.9868 101.252 83.292 100.515 83.292 99.5873C83.292 97.504 82.2544 96.4623 80.1792 96.4623C79.2026 96.4623 78.4214 96.7431 77.8354 97.3046C77.2576 97.858 76.9688 98.5945 76.9688 99.5141H74.7104C74.7104 98.1062 75.2231 96.9384 76.2485 96.0107C77.2821 95.0748 78.5923 94.6068 80.1792 94.6068C81.8556 94.6068 83.1699 95.0504 84.1221 95.9374C85.0742 96.8245 85.5503 98.0574 85.5503 99.6361C85.5503 100.409 85.298 101.158 84.7935 101.882C84.297 102.607 83.6175 103.148 82.7549 103.506C83.7314 103.815 84.4842 104.328 85.0132 105.044C85.5503 105.76 85.8188 106.635 85.8188 107.668C85.8188 109.263 85.298 110.529 84.2563 111.465C83.2147 112.401 81.8597 112.869 80.1914 112.869C78.5231 112.869 77.1641 112.417 76.1143 111.514C75.0726 110.61 74.5518 109.418 74.5518 107.937H76.8223C76.8223 108.873 77.1274 109.621 77.7378 110.183C78.3481 110.745 79.166 111.025 80.1914 111.025C81.2819 111.025 82.116 110.74 82.6938 110.171C83.2716 109.601 83.5605 108.783 83.5605 107.717C83.5605 106.684 83.2432 105.89 82.6084 105.337C81.9736 104.783 81.0581 104.499 79.8618 104.482H78.165V102.639ZM117.057 106.655H119.522V108.498H117.057V112.624H114.786V108.498H106.693V107.168L114.652 94.851H117.057V106.655ZM109.256 106.655H114.786V97.9394L114.518 98.4276L109.256 106.655ZM122.599 103.713L123.502 94.851H132.608V96.9384H125.418L124.881 101.785C125.752 101.272 126.741 101.016 127.848 101.016C129.467 101.016 130.753 101.553 131.705 102.627C132.657 103.693 133.133 105.137 133.133 106.96C133.133 108.791 132.637 110.236 131.644 111.294C130.659 112.344 129.28 112.869 127.506 112.869C125.935 112.869 124.653 112.433 123.661 111.562C122.668 110.692 122.102 109.487 121.964 107.949H124.1C124.238 108.966 124.601 109.735 125.187 110.256C125.772 110.769 126.546 111.025 127.506 111.025C128.556 111.025 129.378 110.667 129.972 109.951C130.574 109.235 130.875 108.246 130.875 106.985C130.875 105.797 130.549 104.844 129.898 104.128C129.256 103.404 128.397 103.042 127.323 103.042C126.338 103.042 125.565 103.258 125.003 103.689L124.405 104.177L122.599 103.713ZM144.461 94.8388V96.7553H144.046C142.289 96.7878 140.889 97.3087 139.847 98.3178C138.806 99.3269 138.203 100.747 138.041 102.578C138.976 101.504 140.254 100.967 141.874 100.967C143.42 100.967 144.653 101.512 145.572 102.602C146.5 103.693 146.964 105.101 146.964 106.826C146.964 108.657 146.463 110.122 145.462 111.221C144.47 112.319 143.135 112.869 141.458 112.869C139.758 112.869 138.378 112.218 137.32 110.915C136.262 109.605 135.733 107.921 135.733 105.862V104.995C135.733 101.724 136.429 99.2252 137.821 97.4999C139.221 95.7665 141.3 94.8795 144.059 94.8388H144.461ZM141.495 102.847C140.722 102.847 140.01 103.079 139.359 103.542C138.708 104.006 138.256 104.588 138.004 105.288V106.118C138.004 107.583 138.333 108.763 138.993 109.658C139.652 110.553 140.474 111.001 141.458 111.001C142.476 111.001 143.273 110.627 143.851 109.878C144.437 109.129 144.73 108.149 144.73 106.936C144.73 105.715 144.433 104.731 143.839 103.982C143.253 103.225 142.472 102.847 141.495 102.847ZM161.112 96.1205L153.751 112.624H151.383L158.719 96.7065H149.1V94.851H161.112V96.1205ZM193.058 99.4897C193.058 100.377 192.822 101.166 192.35 101.858C191.886 102.55 191.255 103.091 190.458 103.481C191.385 103.88 192.118 104.462 192.655 105.227C193.2 105.992 193.473 106.859 193.473 107.827C193.473 109.365 192.952 110.59 191.91 111.501C190.877 112.413 189.514 112.869 187.821 112.869C186.112 112.869 184.741 112.413 183.707 111.501C182.682 110.582 182.169 109.357 182.169 107.827C182.169 106.867 182.429 106 182.95 105.227C183.479 104.454 184.208 103.868 185.135 103.469C184.346 103.079 183.723 102.537 183.268 101.846C182.812 101.154 182.584 100.369 182.584 99.4897C182.584 97.9923 183.064 96.8041 184.024 95.9252C184.985 95.0463 186.25 94.6068 187.821 94.6068C189.383 94.6068 190.645 95.0463 191.605 95.9252C192.573 96.8041 193.058 97.9923 193.058 99.4897ZM191.214 107.778C191.214 106.785 190.897 105.976 190.262 105.349C189.636 104.722 188.814 104.409 187.796 104.409C186.779 104.409 185.961 104.718 185.343 105.337C184.732 105.955 184.427 106.769 184.427 107.778C184.427 108.787 184.724 109.581 185.318 110.159C185.921 110.736 186.755 111.025 187.821 111.025C188.879 111.025 189.709 110.736 190.311 110.159C190.913 109.573 191.214 108.779 191.214 107.778ZM187.821 96.4623C186.934 96.4623 186.214 96.739 185.66 97.2924C185.115 97.8376 184.842 98.5823 184.842 99.5263C184.842 100.43 185.111 101.162 185.648 101.724C186.193 102.277 186.917 102.554 187.821 102.554C188.724 102.554 189.444 102.277 189.981 101.724C190.527 101.162 190.799 100.43 190.799 99.5263C190.799 98.623 190.519 97.8865 189.957 97.3168C189.396 96.7471 188.683 96.4623 187.821 96.4623ZM204.972 104.812C204.5 105.373 203.934 105.825 203.275 106.167C202.624 106.509 201.908 106.68 201.126 106.68C200.101 106.68 199.206 106.427 198.441 105.923C197.684 105.418 197.098 104.71 196.683 103.799C196.268 102.879 196.061 101.866 196.061 100.759C196.061 99.571 196.284 98.5009 196.732 97.5487C197.188 96.5966 197.831 95.8682 198.661 95.3637C199.491 94.8591 200.459 94.6068 201.566 94.6068C203.324 94.6068 204.707 95.266 205.716 96.5844C206.734 97.8946 207.242 99.685 207.242 101.955V102.615C207.242 106.073 206.559 108.6 205.191 110.195C203.824 111.782 201.761 112.596 199.002 112.637H198.563V110.732H199.039C200.903 110.7 202.335 110.216 203.336 109.28C204.337 108.336 204.882 106.846 204.972 104.812ZM201.493 104.812C202.25 104.812 202.945 104.58 203.58 104.116C204.223 103.652 204.691 103.079 204.984 102.395V101.492C204.984 100.01 204.662 98.8061 204.02 97.8783C203.377 96.9506 202.563 96.4867 201.578 96.4867C200.585 96.4867 199.788 96.8692 199.186 97.6342C198.583 98.391 198.282 99.392 198.282 100.637C198.282 101.85 198.571 102.851 199.149 103.64C199.735 104.421 200.516 104.812 201.493 104.812ZM217.777 112.624H215.506V97.5732L210.953 99.2455V97.1947L217.423 94.7655H217.777V112.624ZM235.538 105.044C235.538 107.689 235.086 109.654 234.183 110.94C233.28 112.226 231.868 112.869 229.947 112.869C228.051 112.869 226.647 112.242 225.736 110.989C224.824 109.727 224.352 107.847 224.32 105.349V102.334C224.32 99.7216 224.771 97.7807 225.675 96.5111C226.578 95.2416 227.994 94.6068 229.923 94.6068C231.835 94.6068 233.243 95.2213 234.146 96.4501C235.05 97.6708 235.514 99.5588 235.538 102.114V105.044ZM233.28 101.955C233.28 100.043 233.011 98.6514 232.474 97.7807C231.937 96.9018 231.087 96.4623 229.923 96.4623C228.767 96.4623 227.925 96.8977 227.396 97.7685C226.867 98.6392 226.594 99.9779 226.578 101.785V105.398C226.578 107.318 226.855 108.739 227.408 109.658C227.97 110.57 228.816 111.025 229.947 111.025C231.062 111.025 231.888 110.594 232.425 109.731C232.971 108.869 233.255 107.51 233.28 105.654V101.955ZM264.457 112.624H262.186V97.5732L257.633 99.2455V97.1947L264.103 94.7655H264.457V112.624ZM278.495 112.624H276.224V97.5732L271.671 99.2455V97.1947L278.141 94.7655H278.495V112.624ZM292.533 112.624H290.262V97.5732L285.709 99.2455V97.1947L292.179 94.7655H292.533V112.624ZM310.794 112.624H299.149V111.001L305.301 104.165C306.213 103.131 306.839 102.293 307.181 101.65C307.531 100.999 307.706 100.328 307.706 99.6361C307.706 98.7084 307.425 97.9475 306.864 97.3534C306.302 96.7593 305.554 96.4623 304.618 96.4623C303.495 96.4623 302.62 96.7838 301.993 97.4267C301.375 98.0614 301.065 98.9485 301.065 100.088H298.807C298.807 98.4521 299.332 97.1296 300.382 96.1205C301.44 95.1114 302.852 94.6068 304.618 94.6068C306.27 94.6068 307.576 95.0422 308.536 95.913C309.496 96.7756 309.977 97.9272 309.977 99.3676C309.977 101.117 308.862 103.201 306.632 105.618L301.871 110.781H310.794V112.624Z" fill="white"/>
<path opacity="0.8" d="M289.266 157.967H286.184V160.487H289.764V161.254H285.247V154.144H289.715V154.916H286.184V157.201H289.266V157.967ZM293.25 156.869L294.954 154.144H296.058L293.811 157.67L296.111 161.254H294.998L293.25 158.48L291.492 161.254H290.384L292.688 157.67L290.437 154.144H291.536L293.25 156.869ZM298.138 158.47V161.254H297.2V154.144H299.822C300.6 154.144 301.209 154.343 301.648 154.74C302.091 155.137 302.312 155.663 302.312 156.317C302.312 157.007 302.096 157.539 301.663 157.914C301.233 158.285 300.616 158.47 299.812 158.47H298.138ZM298.138 157.704H299.822C300.323 157.704 300.708 157.587 300.975 157.352C301.241 157.115 301.375 156.773 301.375 156.327C301.375 155.904 301.241 155.565 300.975 155.311C300.708 155.057 300.341 154.925 299.876 154.916H298.138V157.704ZM304.515 161.254H303.577V154.144H304.515V161.254ZM308.841 158.378H307.171V161.254H306.228V154.144H308.582C309.383 154.144 309.998 154.326 310.428 154.691C310.861 155.056 311.077 155.586 311.077 156.283C311.077 156.726 310.957 157.111 310.716 157.44C310.478 157.769 310.146 158.015 309.72 158.177L311.39 161.195V161.254H310.384L308.841 158.378ZM307.171 157.611H308.611C309.077 157.611 309.446 157.491 309.72 157.25C309.996 157.009 310.135 156.686 310.135 156.283C310.135 155.843 310.003 155.506 309.739 155.272C309.479 155.038 309.101 154.919 308.606 154.916H307.171V157.611ZM316.414 157.967H313.333V160.487H316.912V161.254H312.395V154.144H316.863V154.916H313.333V157.201H316.414V157.967Z" fill="white"/>
<path d="M285.958 185.69H284.596V176.659L281.864 177.663V176.432L285.746 174.975H285.958V185.69ZM296.915 185.69H289.928V184.716L293.619 180.614C294.166 179.994 294.542 179.491 294.747 179.106C294.957 178.715 295.062 178.312 295.062 177.897C295.062 177.341 294.894 176.884 294.557 176.528C294.22 176.171 293.771 175.993 293.209 175.993C292.535 175.993 292.011 176.186 291.635 176.572C291.263 176.952 291.078 177.485 291.078 178.168H289.723C289.723 177.187 290.038 176.393 290.668 175.788C291.303 175.182 292.15 174.88 293.209 174.88C294.2 174.88 294.984 175.141 295.56 175.663C296.137 176.181 296.425 176.872 296.425 177.736C296.425 178.786 295.756 180.036 294.418 181.486L291.561 184.584H296.915V185.69ZM298.761 186.606H297.596L302.05 175.026H303.207L298.761 186.606ZM306.503 179.699H307.521C308.16 179.689 308.663 179.521 309.03 179.194C309.396 178.866 309.579 178.425 309.579 177.868C309.579 176.618 308.956 175.993 307.711 175.993C307.125 175.993 306.657 176.161 306.305 176.498C305.958 176.83 305.785 177.272 305.785 177.824H304.43C304.43 176.979 304.738 176.279 305.353 175.722C305.973 175.16 306.759 174.88 307.711 174.88C308.717 174.88 309.506 175.146 310.077 175.678C310.648 176.21 310.934 176.95 310.934 177.897C310.934 178.361 310.783 178.81 310.48 179.245C310.182 179.679 309.774 180.004 309.257 180.219C309.843 180.405 310.294 180.712 310.612 181.142C310.934 181.572 311.095 182.096 311.095 182.717C311.095 183.674 310.783 184.433 310.158 184.994C309.533 185.556 308.72 185.837 307.719 185.837C306.718 185.837 305.902 185.566 305.272 185.024C304.647 184.482 304.335 183.766 304.335 182.878H305.697C305.697 183.439 305.88 183.888 306.246 184.225C306.613 184.562 307.103 184.731 307.719 184.731C308.373 184.731 308.873 184.56 309.22 184.218C309.567 183.876 309.74 183.385 309.74 182.746C309.74 182.126 309.55 181.65 309.169 181.318C308.788 180.986 308.239 180.815 307.521 180.805H306.503V179.699ZM317.408 185.69H316.046V176.659L313.314 177.663V176.432L317.196 174.975H317.408V185.69Z" fill="white"/>
<path opacity="0.8" d="M30.8008 158.998C30.7129 159.75 30.4346 160.331 29.9658 160.741C29.5003 161.148 28.8802 161.351 28.1055 161.351C27.2656 161.351 26.5918 161.05 26.084 160.448C25.5794 159.846 25.3271 159.04 25.3271 158.031V157.347C25.3271 156.686 25.4443 156.105 25.6787 155.604C25.9163 155.103 26.2516 154.719 26.6846 154.452C27.1175 154.182 27.6188 154.047 28.1885 154.047C28.9437 154.047 29.5492 154.258 30.0049 154.681C30.4606 155.101 30.7259 155.684 30.8008 156.429H29.8584C29.777 155.863 29.5996 155.453 29.3262 155.199C29.056 154.945 28.6768 154.818 28.1885 154.818C27.5895 154.818 27.1191 155.039 26.7773 155.482C26.4388 155.925 26.2695 156.555 26.2695 157.372V158.06C26.2695 158.832 26.4307 159.445 26.7529 159.901C27.0752 160.357 27.526 160.585 28.1055 160.585C28.6263 160.585 29.0251 160.467 29.3018 160.233C29.5817 159.995 29.7673 159.584 29.8584 158.998H30.8008ZM36.0107 159.398H33.0322L32.3633 161.254H31.3965L34.1113 154.144H34.9316L37.6514 161.254H36.6895L36.0107 159.398ZM33.3154 158.627H35.7324L34.5215 155.301L33.3154 158.627ZM41.2158 158.378H39.5459V161.254H38.6035V154.144H40.957C41.7578 154.144 42.373 154.326 42.8027 154.691C43.2357 155.056 43.4521 155.586 43.4521 156.283C43.4521 156.726 43.3317 157.111 43.0908 157.44C42.8532 157.769 42.5212 158.015 42.0947 158.177L43.7646 161.195V161.254H42.7588L41.2158 158.378ZM39.5459 157.611H40.9863C41.4518 157.611 41.8213 157.491 42.0947 157.25C42.3714 157.009 42.5098 156.686 42.5098 156.283C42.5098 155.843 42.3779 155.506 42.1143 155.272C41.8538 155.038 41.4762 154.919 40.9814 154.916H39.5459V157.611ZM44.7705 161.254V154.144H46.7773C47.3958 154.144 47.9427 154.281 48.418 154.554C48.8932 154.828 49.2594 155.217 49.5166 155.721C49.777 156.226 49.9089 156.805 49.9121 157.46V157.914C49.9121 158.584 49.7819 159.172 49.5215 159.676C49.2643 160.181 48.8949 160.568 48.4131 160.839C47.9346 161.109 47.3763 161.247 46.7383 161.254H44.7705ZM45.708 154.916V160.487H46.6943C47.417 160.487 47.9785 160.262 48.3789 159.813C48.7826 159.364 48.9844 158.724 48.9844 157.894V157.479C48.9844 156.672 48.7939 156.045 48.4131 155.599C48.0355 155.15 47.4984 154.922 46.8018 154.916H45.708ZM59.2773 161.254H58.335V157.967H54.751V161.254H53.8135V154.144H54.751V157.201H58.335V154.144H59.2773V161.254ZM66.4111 157.928C66.4111 158.625 66.2939 159.234 66.0596 159.755C65.8252 160.272 65.4932 160.668 65.0635 160.941C64.6338 161.214 64.1325 161.351 63.5596 161.351C62.9997 161.351 62.5033 161.214 62.0703 160.941C61.6374 160.664 61.3005 160.272 61.0596 159.764C60.8219 159.253 60.6999 158.662 60.6934 157.992V157.479C60.6934 156.796 60.8122 156.192 61.0498 155.668C61.2874 155.144 61.6227 154.743 62.0557 154.466C62.4919 154.186 62.9899 154.047 63.5498 154.047C64.1195 154.047 64.6208 154.185 65.0537 154.462C65.4899 154.735 65.8252 155.134 66.0596 155.658C66.2939 156.179 66.4111 156.786 66.4111 157.479V157.928ZM65.4785 157.469C65.4785 156.626 65.3092 155.98 64.9707 155.531C64.6322 155.078 64.1585 154.852 63.5498 154.852C62.9574 154.852 62.4902 155.078 62.1484 155.531C61.8099 155.98 61.6357 156.605 61.626 157.406V157.928C61.626 158.745 61.7969 159.388 62.1387 159.857C62.4837 160.323 62.9574 160.555 63.5596 160.555C64.165 160.555 64.6338 160.336 64.9658 159.896C65.2979 159.453 65.4688 158.82 65.4785 157.997V157.469ZM68.7598 160.487H72.1289V161.254H67.8174V154.144H68.7598V160.487ZM73.1982 161.254V154.144H75.2051C75.8236 154.144 76.3704 154.281 76.8457 154.554C77.321 154.828 77.6872 155.217 77.9443 155.721C78.2048 156.226 78.3366 156.805 78.3398 157.46V157.914C78.3398 158.584 78.2096 159.172 77.9492 159.676C77.6921 160.181 77.3226 160.568 76.8408 160.839C76.3623 161.109 75.804 161.247 75.166 161.254H73.1982ZM74.1357 154.916V160.487H75.1221C75.8447 160.487 76.4062 160.262 76.8066 159.813C77.2103 159.364 77.4121 158.724 77.4121 157.894V157.479C77.4121 156.672 77.2217 156.045 76.8408 155.599C76.4632 155.15 75.9261 154.922 75.2295 154.916H74.1357ZM83.7793 157.967H80.6982V160.487H84.2773V161.254H79.7607V154.144H84.2285V154.916H80.6982V157.201H83.7793V157.967ZM88.0518 158.378H86.3818V161.254H85.4395V154.144H87.793C88.5938 154.144 89.209 154.326 89.6387 154.691C90.0716 155.056 90.2881 155.586 90.2881 156.283C90.2881 156.726 90.1676 157.111 89.9268 157.44C89.6891 157.769 89.3571 158.015 88.9307 158.177L90.6006 161.195V161.254H89.5947L88.0518 158.378ZM86.3818 157.611H87.8223C88.2878 157.611 88.6572 157.491 88.9307 157.25C89.2074 157.009 89.3457 156.686 89.3457 156.283C89.3457 155.843 89.2139 155.506 88.9502 155.272C88.6898 155.038 88.3122 154.919 87.8174 154.916H86.3818V157.611Z" fill="white"/>
<path d="M27.8003 175.026L31.2866 183.727L34.7729 175.026H36.5967V185.69H35.1904V181.537L35.3223 177.055L31.8213 185.69H30.7446L27.251 177.077L27.3901 181.537V185.69H25.9839V175.026H27.8003ZM45.1001 182.907H40.6323L39.6289 185.69H38.1787L42.251 175.026H43.4814L47.561 185.69H46.1182L45.1001 182.907ZM41.0571 181.75H44.6826L42.8662 176.762L41.0571 181.75ZM52.9077 181.376H50.4028V185.69H48.9893V175.026H52.5195C53.7207 175.026 54.6436 175.3 55.2881 175.846C55.9375 176.393 56.2622 177.189 56.2622 178.234C56.2622 178.898 56.0815 179.477 55.7202 179.97C55.3638 180.463 54.8657 180.832 54.2261 181.076L56.731 185.602V185.69H55.2222L52.9077 181.376ZM50.4028 180.226H52.5635C53.2617 180.226 53.8159 180.046 54.2261 179.684C54.6411 179.323 54.8486 178.84 54.8486 178.234C54.8486 177.575 54.6509 177.07 54.2554 176.718C53.8647 176.366 53.2983 176.188 52.5562 176.183H50.4028V180.226ZM60.9497 180.732L59.646 182.087V185.69H58.2397V175.026H59.646V180.3L64.3848 175.026H66.084L61.8872 179.736L66.4136 185.69H64.729L60.9497 180.732ZM77.2534 182.907H72.7856L71.7822 185.69H70.332L74.4043 175.026H75.6348L79.7144 185.69H78.2715L77.2534 182.907ZM73.2104 181.75H76.8359L75.0195 176.762L73.2104 181.75ZM89.3457 185.69H87.9321L82.5635 177.472V185.69H81.1499V175.026H82.5635L87.9468 183.28V175.026H89.3457V185.69ZM91.8433 185.69V175.026H94.8535C95.7812 175.026 96.6016 175.231 97.3145 175.641C98.0273 176.051 98.5767 176.635 98.9624 177.392C99.353 178.149 99.5508 179.018 99.5557 179.999V180.68C99.5557 181.686 99.3604 182.568 98.9697 183.324C98.584 184.081 98.0298 184.662 97.3071 185.068C96.5894 185.473 95.752 185.68 94.7949 185.69H91.8433ZM93.2495 176.183V184.54H94.729C95.813 184.54 96.6553 184.203 97.2559 183.53C97.8613 182.856 98.1641 181.896 98.1641 180.651V180.029C98.1641 178.818 97.8784 177.878 97.3071 177.209C96.7407 176.535 95.9351 176.193 94.8901 176.183H93.2495ZM107.715 180.761H103.093V184.54H108.462V185.69H101.687V175.026H108.389V176.183H103.093V179.611H107.715V180.761ZM114.124 181.376H111.619V185.69H110.205V175.026H113.735C114.937 175.026 115.859 175.3 116.504 175.846C117.153 176.393 117.478 177.189 117.478 178.234C117.478 178.898 117.297 179.477 116.936 179.97C116.58 180.463 116.082 180.832 115.442 181.076L117.947 185.602V185.69H116.438L114.124 181.376ZM111.619 180.226H113.779C114.478 180.226 115.032 180.046 115.442 179.684C115.857 179.323 116.064 178.84 116.064 178.234C116.064 177.575 115.867 177.07 115.471 176.718C115.081 176.366 114.514 176.188 113.772 176.183H111.619V180.226ZM122.598 180.937C121.392 180.59 120.513 180.165 119.961 179.662C119.414 179.155 119.141 178.53 119.141 177.787C119.141 176.947 119.475 176.254 120.144 175.707C120.818 175.155 121.692 174.88 122.766 174.88C123.499 174.88 124.15 175.021 124.722 175.304C125.298 175.588 125.742 175.978 126.055 176.476C126.372 176.974 126.531 177.519 126.531 178.11H125.117C125.117 177.465 124.912 176.96 124.502 176.593C124.092 176.222 123.513 176.037 122.766 176.037C122.073 176.037 121.531 176.191 121.14 176.498C120.754 176.801 120.562 177.223 120.562 177.765C120.562 178.2 120.745 178.569 121.111 178.871C121.482 179.169 122.109 179.443 122.993 179.692C123.882 179.941 124.575 180.217 125.073 180.519C125.576 180.817 125.947 181.166 126.187 181.567C126.431 181.967 126.553 182.438 126.553 182.98C126.553 183.844 126.216 184.538 125.542 185.06C124.868 185.578 123.967 185.837 122.839 185.837C122.107 185.837 121.423 185.697 120.789 185.419C120.154 185.136 119.663 184.75 119.316 184.262C118.975 183.774 118.804 183.219 118.804 182.599H120.217C120.217 183.244 120.454 183.754 120.928 184.13C121.406 184.501 122.043 184.687 122.839 184.687C123.582 184.687 124.15 184.535 124.546 184.233C124.941 183.93 125.139 183.517 125.139 182.995C125.139 182.472 124.956 182.07 124.59 181.786C124.224 181.498 123.56 181.215 122.598 180.937ZM136.565 180.702C136.565 181.747 136.389 182.66 136.038 183.442C135.686 184.218 135.188 184.811 134.543 185.221C133.899 185.632 133.147 185.837 132.288 185.837C131.448 185.837 130.703 185.632 130.054 185.221C129.404 184.806 128.899 184.218 128.538 183.456C128.181 182.69 127.998 181.803 127.988 180.798V180.029C127.988 179.003 128.167 178.097 128.523 177.311C128.879 176.525 129.382 175.925 130.032 175.509C130.686 175.09 131.433 174.88 132.273 174.88C133.127 174.88 133.879 175.087 134.529 175.502C135.183 175.912 135.686 176.51 136.038 177.297C136.389 178.078 136.565 178.988 136.565 180.029V180.702ZM135.166 180.014C135.166 178.749 134.912 177.78 134.404 177.106C133.896 176.427 133.186 176.088 132.273 176.088C131.384 176.088 130.684 176.427 130.171 177.106C129.663 177.78 129.402 178.717 129.387 179.919V180.702C129.387 181.928 129.644 182.892 130.156 183.595C130.674 184.294 131.384 184.643 132.288 184.643C133.196 184.643 133.899 184.313 134.397 183.654C134.895 182.99 135.151 182.04 135.166 180.805V180.014ZM146.87 185.69H145.457L140.088 177.472V185.69H138.674V175.026H140.088L145.471 183.28V175.026H146.87V185.69Z" fill="white"/>
<path d="M278.278 23.7559L275.244 43.1056H280.093L283.125 23.7559H278.278ZM292.903 31.6379C291.209 30.7802 290.17 30.2013 290.17 29.3241C290.191 28.5265 291.049 27.7094 292.964 27.7094C294.539 27.6688 295.697 28.0483 296.575 28.4259L297.015 28.6272L297.675 24.5787C296.717 24.1992 295.198 23.7811 293.323 23.7811C288.534 23.7811 285.163 26.3329 285.142 29.9826C285.102 32.6758 287.556 34.1704 289.392 35.0669C291.268 35.9866 291.906 36.5829 291.906 37.4C291.885 38.6546 290.389 39.2334 288.993 39.2334C287.059 39.2334 286.02 38.9353 284.443 38.2362L283.805 37.9381L283.127 42.1454C284.266 42.6644 286.36 43.1211 288.535 43.1445C293.623 43.1445 296.934 40.6313 296.976 36.7417C296.993 34.608 295.699 32.9738 292.903 31.6379ZM310.105 23.8157H306.354C305.198 23.8157 304.32 24.1566 303.819 25.3725L296.617 43.1056H301.705L303.107 39.2663H308.8L309.527 43.1211H314.015L310.105 23.8157ZM304.518 35.3918C304.616 35.4016 306.471 29.1245 306.471 29.1245L307.948 35.3918C307.948 35.3918 305.476 35.3918 304.518 35.3918ZM271.192 23.7559L266.442 36.9022L265.924 34.3097C265.046 31.3183 262.292 28.0676 259.219 26.4529L263.569 43.0863H268.699L276.323 23.758H271.192V23.7559Z" fill="white"/>
<path d="M264.327 26.2522C263.956 24.7768 262.776 23.7817 261.172 23.7605H253.649L253.571 24.1185C259.44 25.6015 264.366 30.1649 265.964 34.4574L264.327 26.2522Z" fill="#FDBF5E"/>
<path d="M29.4088 24.2234H34.6082H48.4344H62.6571H67.0871C69.4049 24.2234 71.2839 26.1087 71.2839 28.4343V31.0777V41.9558V53.1496V55.4305C71.2839 57.7561 69.4049 59.6414 67.0871 59.6414H62.6571H48.5743H34.6082H29.4088C27.0909 59.6414 25.2119 57.7561 25.2119 55.4305V53.1496V41.985V30.8204V28.4343C25.2119 26.1087 27.0909 24.2234 29.4088 24.2234Z" fill="#FDBF5E"/>
<path fill-rule="evenodd" clip-rule="evenodd" d="M24.7461 28.4346C24.7461 25.8506 26.8339 23.7559 29.4092 23.7559H67.0876C69.6629 23.7559 71.7507 25.8506 71.7507 28.4346V55.4308C71.7507 58.0148 69.6629 60.1095 67.0876 60.1095H29.4093C26.8339 60.1095 24.7461 58.0148 24.7461 55.4308V28.4346ZM29.4092 24.6916C27.3489 24.6916 25.6787 26.3674 25.6787 28.4346V30.3529H27.7305V29.1364C27.7305 27.8444 28.7744 26.797 30.0621 26.797H34.1424V24.6916H29.4092ZM35.075 24.6916V26.797H47.9686V24.6916H35.075ZM48.9012 24.6916V26.797H62.1912V24.6916H48.9012ZM63.1239 24.6916V26.797H66.4813C67.769 26.797 68.8129 27.8444 68.8129 29.1364V30.6102H70.8181V28.4346C70.8181 26.3674 69.1479 24.6916 67.0876 24.6916H63.1239ZM70.8181 31.5459H68.8129V41.4882H70.8181V31.5459ZM70.8181 42.424H68.8129V52.6821H70.8181V42.424ZM70.8181 53.6178H68.8129V55.0097C68.8129 56.3017 67.769 57.3491 66.4813 57.3491H63.1025C63.1164 57.3934 63.1239 57.4406 63.1239 57.4895V59.1738H67.0876C69.1479 59.1738 70.8181 57.498 70.8181 55.4308V53.6178ZM62.1912 59.1738V57.4895C62.1912 57.4406 62.1987 57.3934 62.2126 57.3491H49.0411V59.1738H62.1912ZM48.1085 59.1738V57.3491H35.075V59.1738H48.1085ZM34.1424 59.1738V57.3491H30.0621C28.7744 57.3491 27.7305 56.3017 27.7305 55.0097V53.6178H25.6787V55.4308C25.6787 57.498 27.3489 59.1738 29.4093 59.1738H34.1424ZM25.6787 52.6821H27.7305V42.4532H25.6787V52.6821ZM25.6787 41.5175H27.7305V31.2886H25.6787V41.5175ZM28.6631 42.424V48.9508H40.5542V42.424H28.6631ZM40.5542 41.4882H28.6631V34.8444H40.5542V41.4882ZM40.5542 33.9087V27.7328H30.0621C29.2895 27.7328 28.6631 28.3612 28.6631 29.1364V33.9087H40.5542ZM41.4868 27.7328V56.4133H55.6628V36.7627C55.6628 35.4707 56.7067 34.4233 57.9944 34.4233H67.8803V29.1364C67.8803 28.3612 67.254 27.7328 66.4813 27.7328H41.4868ZM67.8803 35.3591H57.9944C57.2218 35.3591 56.5954 35.9875 56.5954 36.7627V41.4882H67.8803V35.3591ZM67.8803 42.424H56.5954V48.9508H67.8803V42.424ZM67.8803 49.8865H56.5954V56.4133H66.4813C67.254 56.4133 67.8803 55.7849 67.8803 55.0097V49.8865ZM40.5542 56.4133V49.8865H28.6631V55.0097C28.6631 55.7849 29.2895 56.4133 30.0621 56.4133H40.5542Z" fill="#15232E"/>
<defs>
<linearGradient id="paint0_linear" x1="21.7407" y1="15.4194" x2="340.915" y2="173.725" gradientUnits="userSpaceOnUse">
<stop stop-color="#FF3D57"/>
<stop offset="1" stop-color="#FF8A48"/>
</linearGradient>
<linearGradient id="paint1_linear" x1="21.7407" y1="15.4194" x2="340.915" y2="173.725" gradientUnits="userSpaceOnUse">
<stop stop-color="#FF3D57"/>
<stop offset="1" stop-color="#FF8A48"/>
</linearGradient>
<linearGradient id="paint2_linear" x1="15.0185" y1="10.4194" x2="343.214" y2="181.076" gradientUnits="userSpaceOnUse">
<stop stop-color="#FF3D57"/>
<stop offset="1" stop-color="#FF8A48"/>
</linearGradient>
<linearGradient id="paint3_linear" x1="15.0185" y1="10.4194" x2="343.214" y2="181.076" gradientUnits="userSpaceOnUse">
<stop stop-color="#FF3D57"/>
<stop offset="1" stop-color="#FF8A48"/>
</linearGradient>
<linearGradient id="paint4_linear" x1="6.29629" y1="5.41936" x2="342.874" y2="188.512" gradientUnits="userSpaceOnUse">
<stop stop-color="#FF3D57"/>
<stop offset="1" stop-color="#FF8A48"/>
</linearGradient>
<linearGradient id="paint5_linear" x1="6.29629" y1="5.41936" x2="342.874" y2="188.512" gradientUnits="userSpaceOnUse">
<stop stop-color="#FF3D57"/>
<stop offset="1" stop-color="#FF8A48"/>
</linearGradient>
</defs>
</svg>
