<svg width="476" height="582" viewBox="0 0 476 582" fill="none" xmlns="http://www.w3.org/2000/svg">
<rect width="476" height="582" fill="#F4F8F9"/>
<g clipPath="url(#clip0)">
<path d="M237.038 271.668C245.488 271.668 252.339 278.519 252.339 286.969C252.339 295.419 245.488 302.27 237.038 302.27C228.587 302.27 221.737 295.42 221.737 286.969C221.737 278.519 228.587 271.668 237.038 271.668ZM237.038 294.984C241.464 294.984 245.053 291.395 245.053 286.969C245.053 282.542 241.464 278.954 237.038 278.954C232.611 278.954 229.023 282.542 229.023 286.969C229.023 291.395 232.611 294.984 237.038 294.984Z" fill="#D4DADD"/>
<path d="M176.016 236.695L275.472 225.402C279.331 224.853 283.242 225.98 286.218 228.498C289.194 230.806 291.102 234.226 291.501 237.97L293.322 252.907H298.969C306.984 252.907 312.995 260.011 312.995 268.025V342.525C313.197 350.168 307.165 356.528 299.522 356.73C299.338 356.735 299.153 356.736 298.969 356.733H198.968C190.953 356.733 183.667 350.54 183.667 342.525V339.611C181.182 339.131 178.825 338.138 176.745 336.697C173.794 334.212 171.904 330.693 171.463 326.86L163.084 252.907C162.229 244.873 167.994 237.647 176.016 236.695ZM190.953 342.525C190.953 346.533 194.96 349.447 198.968 349.447H298.969C302.589 349.553 305.61 346.705 305.716 343.085C305.722 342.898 305.719 342.712 305.709 342.525V329.046L277.475 308.281C274.084 305.677 269.306 305.908 266.182 308.827L246.327 326.314C243.312 328.845 239.517 330.26 235.58 330.321C232.502 330.359 229.475 329.539 226.837 327.953L190.953 307.188V342.525H190.953ZM190.953 298.627L230.662 321.76C234.072 323.78 238.388 323.414 241.409 320.849L261.446 303.18C267.189 298.246 275.582 297.943 281.665 302.452L305.709 319.938V268.025C305.709 264.018 302.977 260.193 298.969 260.193H198.968C194.686 260.37 191.229 263.749 190.953 268.025V298.627ZM170.363 251.923C170.365 251.947 170.367 251.972 170.37 251.996L178.931 325.949C178.917 327.867 179.791 329.683 181.299 330.868C182.028 331.596 183.667 331.961 183.667 332.325V268.025C183.955 259.727 190.667 253.095 198.968 252.907H286.036L284.397 238.699C284.041 236.859 283.079 235.192 281.665 233.963C280.067 232.858 278.136 232.343 276.2 232.505L176.927 243.981C172.921 244.361 169.982 247.917 170.363 251.923Z" fill="#D4DADD"/>
</g>
<defs>
<clipPath id="clip0">
<rect width="150" height="150" fill="white" transform="matrix(-1 0 0 1 313 216)"/>
</clipPath>
</defs>
</svg>
